# ProBuilder 5.1.1
# https://unity3d.com/unity/features/worldbuilding/probuilder
# 2024-05-07 오후 4:07:33

mtllib ./colum.mtl
o colum

g hax 23
v -0.8146727 0.5296491 -18.73861
v -0.05135422 0.9703512 -18.73861
v -0.05135401 0.9703507 0.04859817
v -0.8146714 0.5296493 0.04859817
v 0.8146712 -0.5296491 -18.73861
v 0.05135315 -0.9703512 -18.73861
v 0.05135402 -0.9703507 0.04859817
v 0.8146714 -0.5296493 0.04859817
v -0.05135513 -0.9703512 -18.73861
v -0.8146731 -0.5296499 -18.73861
v -0.8146714 -0.5296493 0.04859817
v -0.05135401 -0.9703507 0.04859817
v -0.8660271 -0.4407022 -18.73861
v -0.8660268 0.4407013 -18.73861
v -0.8660254 0.4407015 0.04859817
v -0.8660254 -0.4407015 0.04859817
v 0.8660258 0.4407021 -18.73861
v 0.8660253 -0.4407013 -18.73861
v 0.8660254 -0.4407015 0.04859817
v 0.8660254 0.4407015 0.04859817
v 6.996917E-09 0.931528 0.1078967
v 0.8067269 0.465764 0.1078967
v 0.8067269 -0.465764 0.1078967
v 6.996917E-09 -0.931528 0.1078967
v -0.8067269 0.465764 0.1078967
v -0.8067269 -0.465764 0.1078967
v 0.05135406 0.9703512 -18.73861
v 0.8146718 0.5296499 -18.73861
v 0.8146714 0.5296493 0.04859817
v 0.05135402 0.9703507 0.04859817
v 1.795422E-08 0.9315284 -18.79791
v 0.03631276 0.9570805 -18.78054
v 2.588556E-08 0.9729995 -18.77285
v -0.03631316 0.9570805 -18.78054
v 3.134195E-08 0.9845322 -18.73861
v -0.03631277 0.95708 0.09052855
v 6.996917E-09 0.972999 0.08283418
v 0.03631278 0.95708 0.09052855
v 8.859562E-09 0.9845318 0.04859817
v 0.8067275 0.4657646 -18.79791
v 0.8470122 0.4470928 -18.78054
v 0.8426423 0.4865001 -18.77284
v 0.8106996 0.5099884 -18.78054
v 0.8526298 0.4922666 -18.73861
v 0.8106991 0.5099878 0.09052855
v 0.8426417 0.4864995 0.08283418
v 0.8470119 0.4470922 0.09052855
v 0.8526295 0.4922659 0.04859817
v 0.8067265 -0.4657638 -18.79791
v 0.810699 -0.5099876 -18.78054
v 0.8426413 -0.4864994 -18.77284
v 0.8470116 -0.4470921 -18.78054
v 0.8526292 -0.4922658 -18.73861
v 0.8470119 -0.4470922 0.09052855
v 0.8426417 -0.4864995 0.08283418
v 0.8106991 -0.5099878 0.09052855
v 0.8526295 -0.4922659 0.04859817
v -8.789092E-07 -0.9315286 -18.79791
v -0.03631407 -0.9570805 -18.78054
v -8.808653E-07 -0.9729995 -18.77285
v 0.03631185 -0.9570805 -18.78054
v -8.781586E-07 -0.9845322 -18.73861
v 0.03631278 -0.95708 0.09052855
v 6.996917E-09 -0.972999 0.08283418
v -0.03631277 -0.95708 0.09052855
v 5.134272E-09 -0.9845318 0.04859817
v -0.8067285 -0.4657646 -18.79791
v -0.8470137 -0.4470928 -18.78054
v -0.8426434 -0.4865001 -18.77285
v -0.8107007 -0.5099883 -18.78054
v -0.8526312 -0.4922665 -18.73861
v -0.8106991 -0.5099878 0.09052855
v -0.8426417 -0.4864995 0.08283418
v -0.8470119 -0.4470922 0.09052855
v -0.8526295 -0.4922659 0.04859817
v -0.8067282 0.4657638 -18.79791
v -0.8107004 0.5099876 -18.78054
v -0.8426431 0.4864993 -18.77285
v -0.8470131 0.4470921 -18.78054
v -0.8526308 0.4922657 -18.73861
v -0.8470119 0.4470922 0.09052855
v -0.8426417 0.4864995 0.08283418
v -0.8106991 0.5099878 0.09052855
v -0.8526295 0.4922659 0.04859817

vt -3.55184 1.460095
vt -3.55184 1.832515
vt 4.338786 1.832514
vt 4.338786 1.460095
vt -3.565313 -4.061182
vt -3.565313 -3.708621
vt 4.325313 -3.708622
vt 4.325313 -4.061183
vt -3.365314 -3.480189
vt -3.365314 -3.109614
vt 4.525313 -3.109615
vt 4.525313 -3.48019
vt -6.958538 0.3110548
vt -6.958538 0.6816816
vt 0.9320881 0.6816816
vt 0.9320881 0.3110551
vt 7.95553 0.6755508
vt 7.95553 0.3031163
vt 0.06490339 0.3031176
vt 0.06490339 0.675552
vt 0.4999205 0.8870451
vt 0.1606914 0.6911909
vt 0.1606914 0.2994826
vt 0.4999205 0.1036285
vt 0.83915 0.6911909
vt 0.83915 0.2994826
vt -3.555313 -3.310252
vt -3.555313 -2.939551
vt 4.335313 -2.939551
vt 4.335313 -3.310253
vt 0.4846529 0.8977933
vt 0.4999225 0.9044873
vt 0.5151921 0.8977933
vt 0.4901752 0.968609
vt 0.4740545 0.9796611
vt 0.4618981 0.9689068
vt 0.4718718 0.9580415
vt 0.4544233 0.9479676
vt 0.4465247 0.9637668
vt 0.4748591 0.9125718
vt 0.4967302 0.9085758
vt 0.4923075 0.9226456
vt 0.5106109 0.9332131
vt 0.512122 0.9137263
vt 0.1437533 0.6833429
vt 0.145591 0.6999139
vt 0.1590228 0.7097907
vt 0.08520886 0.7201129
vt 0.067577 0.7159029
vt 0.07081255 0.6992949
vt 0.08520886 0.6977451
vt 0.08520886 0.6755515
vt 0.067577 0.6833279
vt 0.1260803 0.6755515
vt 0.1404766 0.6992949
vt 0.1260803 0.6977451
vt 0.1260803 0.7201129
vt 0.143712 0.7159029
vt 0.1590228 0.28089
vt 0.145591 0.2907669
vt 0.1437533 0.3073377
vt 0.09372833 0.2504579
vt 0.09164709 0.2313001
vt 0.1065233 0.2264474
vt 0.1123793 0.2396897
vt 0.1334264 0.2281334
vt 0.1209645 0.2149688
vt 0.143712 0.2913499
vt 0.1538621 0.2635291
vt 0.1413552 0.2867782
vt 0.1328152 0.2750854
vt 0.114164 0.2858536
vt 0.1297146 0.297235
vt 0.5151921 0.0928874
vt 0.4999225 0.08619347
vt 0.4846529 0.0928874
vt 0.5129586 0.02478248
vt 0.5226917 0.01004237
vt 0.5348297 0.02078637
vt 0.5304071 0.03485635
vt 0.548345 0.04521286
vt 0.5498565 0.02572596
vt 0.5279094 0.08060864
vt 0.5119649 0.09113279
vt 0.4999978 0.08111724
vt 0.5099713 0.07025203
vt 0.4925228 0.06017822
vt 0.4846242 0.07597718
vt 0.8560917 0.3073377
vt 0.854254 0.2907669
vt 0.8408221 0.28089
vt 0.9143723 0.2671822
vt 0.9320041 0.2756169
vt 0.9287686 0.2915221
vt 0.9143723 0.2883173
vt 0.9143723 0.3084649
vt 0.9320041 0.3074059
vt 0.8735008 0.3084649
vt 0.8558692 0.3074059
vt 0.8591045 0.2915221
vt 0.8735008 0.2883173
vt 0.8735008 0.2671822
vt 0.8558692 0.2756169
vt 0.8408221 0.7097907
vt 0.854254 0.6999139
vt 0.8560917 0.6833429
vt 0.9020742 0.7419899
vt 0.9072441 0.7593646
vt 0.8912433 0.7648665
vt 0.8827032 0.7531738
vt 0.8633478 0.7643293
vt 0.878898 0.7757107
vt 0.842912 0.7289335
vt 0.8564112 0.7045357
vt 0.8622673 0.717778
vt 0.8816383 0.706594
vt 0.8691766 0.6934298
vt 0.1209439 0.7757548
vt 0.1334059 0.7625903
vt 0.1538416 0.7271946
vt -3.555729 0.05477929
vt -3.555729 0.07591438
vt 4.334898 0.07591414
vt 4.334898 0.05477905
vt -3.36409 0.2696104
vt -3.36409 0.2897582
vt 4.526536 0.2897577
vt 4.526536 0.2696099
vt 0.06490333 0.6977448
vt 7.95553 0.6977451
vt 3.346471 -6.923718
vt 3.346471 -6.946086
vt -4.544155 -6.946086
vt -4.544155 -6.923718
vt 0.0676114 0.3073416
vt 0.08524325 0.3031169
vt 0.1261147 0.3031169
vt 4.345844 -3.744842
vt -3.544782 -3.744962
vt 3.124842 4.134782
vt 3.124962 -3.755844
vt 0.4467137 0.02688318
vt 0.4546124 0.04268226
vt 0.4750481 0.07807809
vt 3.734191 0.5062857
vt 3.734191 0.4839098
vt -4.156435 0.4839106
vt -4.156435 0.5062864
vt 4.726281 -3.846981
vt 4.726281 -3.867129
vt -3.164345 -3.867128
vt -3.164345 -3.846981
vt 0.5280205 0.07843837
vt 0.848996 0.2637538
vt 0.8489943 0.2661152
vt 0.5280187 0.08079979
vt 0.7439504 -3.52345
vt 0.723803 -3.52345
vt 0.723803 4.367176
vt 0.7439504 4.367176
vt 4.921919 -3.894335
vt 4.921919 -3.91547
vt -2.968707 -3.915469
vt -2.968707 -3.894334
vt 0.9320041 0.6833018
vt 0.9143723 0.6790918
vt 0.8735008 0.6790918
vt 0.8558692 0.6833018
vt 4.135676 -0.7387307
vt 4.135676 -0.761101
vt -3.754951 -0.761101
vt -3.754951 -0.7387307
vt -2.753684 -3.343493
vt -2.776052 -3.343493
vt -2.776052 4.547134
vt -2.753684 4.547134
vt 0.5533195 0.9637259
vt 0.5408447 0.9505687
vt 0.5204089 0.9151729

vn -0.4999999 0.8660254 2.749094E-08
vn -0.5 0.8660254 2.940367E-08
vn 0.5000001 -0.8660254 -6.614713E-09
vn -0.4999998 -0.8660256 6.185766E-08
vn -0.5 -0.8660254 5.1823E-08
vn -1 2.028741E-07 8.248809E-08
vn 1 -3.043112E-07 7.931545E-09
vn 0 0 1
vn 0.4999999 0.8660256 3.130698E-08
vn 0.5 0.8660254 2.287285E-08
vn 2.793968E-07 0.5166917 -0.8549695
vn 0.04535202 0.5166917 -0.8549695
vn -0.04535146 0.5166917 -0.8549696
vn -0.2771732 0.8947713 -0.3465192
vn -0.3011766 0.8727331 -0.384226
vn -0.2531699 0.9168097 -0.3088123
vn 0.2771744 0.8947703 -0.3465207
vn 0.2531699 0.9168097 -0.3088123
vn 0.3011788 0.872731 -0.3842291
vn 0 0.5166909 0.8549702
vn -0.04534867 0.5166909 0.8549702
vn 0.04534867 0.5166909 0.8549702
vn 0.2771697 0.8947635 0.3465425
vn 0.3011706 0.8727252 0.3842485
vn 0.2531689 0.9168018 0.3088365
vn -0.2771697 0.8947635 0.3465425
vn -0.2531689 0.9168018 0.3088365
vn -0.3011706 0.8727252 0.3842485
vn 0.4475213 0.2583748 -0.8549381
vn 0.4701479 0.2191845 -0.8549381
vn 0.4248948 0.297565 -0.8549383
vn 0.636325 0.6874098 -0.3465229
vn 0.605261 0.69717 -0.3842046
vn 0.667389 0.6776496 -0.3088413
vn 0.9134764 0.207367 -0.3465246
vn 0.9205565 0.2391519 -0.30884
vn 0.9063963 0.1755821 -0.3842091
vn 0.4474682 0.2583458 0.8549696
vn 0.4247936 0.2976193 0.8549697
vn 0.4701428 0.2190723 0.8549696
vn 0.9134721 0.2073464 0.346544
vn 0.9063867 0.1755414 0.3842505
vn 0.9205574 0.2391513 0.3088375
vn 0.6363033 0.6874169 0.3465437
vn 0.6673899 0.6776505 0.3088373
vn 0.6052167 0.6971833 0.3842502
vn 0.4475213 -0.2583751 -0.8549384
vn 0.4248971 -0.2975611 -0.8549385
vn 0.4701454 -0.2191891 -0.8549383
vn 0.913474 -0.2073717 -0.3465291
vn 0.9063949 -0.1755912 -0.3842083
vn 0.9205531 -0.2391522 -0.3088499
vn 0.6363269 -0.6874068 -0.3465259
vn 0.6673884 -0.6776473 -0.3088477
vn 0.6052654 -0.6971664 -0.3842041
vn 0.4474682 -0.2583458 0.8549696
vn 0.4701428 -0.2190723 0.8549696
vn 0.4247936 -0.2976193 0.8549697
vn 0.6363033 -0.6874169 0.3465437
vn 0.6052167 -0.6971833 0.3842502
vn 0.6673899 -0.6776505 0.3088373
vn 0.9134721 -0.2073464 0.346544
vn 0.9205574 -0.2391513 0.3088375
vn 0.9063867 -0.1755414 0.3842505
vn 2.812594E-07 -0.5166928 -0.8549688
vn -0.04535208 -0.5166928 -0.8549688
vn 0.04535264 -0.5166928 -0.8549688
vn 0.2771746 -0.8947707 -0.3465195
vn 0.3011791 -0.8727313 -0.3842281
vn 0.25317 -0.9168101 -0.3088109
vn -0.2771721 -0.8947717 -0.3465191
vn -0.253168 -0.9168106 -0.308811
vn -0.3011762 -0.8727328 -0.3842271
vn 0 -0.5166909 0.8549702
vn 0.04534867 -0.5166909 0.8549702
vn -0.04534867 -0.5166909 0.8549702
vn -0.2771697 -0.8947635 0.3465425
vn -0.3011706 -0.8727252 0.3842485
vn -0.2531689 -0.9168018 0.3088365
vn 0.2771697 -0.8947635 0.3465425
vn 0.2531689 -0.9168018 0.3088365
vn 0.3011706 -0.8727252 0.3842485
vn -0.447468 -0.2583474 -0.8549691
vn -0.4701443 -0.219071 -0.8549692
vn -0.4247916 -0.2976237 -0.8549691
vn -0.6363054 -0.6874251 -0.3465229
vn -0.6052154 -0.6971942 -0.3842325
vn -0.6673954 -0.6776561 -0.3088133
vn -0.9134802 -0.2073473 -0.3465219
vn -0.9205644 -0.2391547 -0.3088144
vn -0.9063959 -0.1755398 -0.3842295
vn -0.4474682 -0.2583458 0.8549696
vn -0.4247936 -0.2976193 0.8549697
vn -0.4701428 -0.2190723 0.8549696
vn -0.9134721 -0.2073464 0.346544
vn -0.9063867 -0.1755414 0.3842505
vn -0.9205574 -0.2391513 0.3088375
vn -0.6363033 -0.6874169 0.3465437
vn -0.6673899 -0.6776505 0.3088373
vn -0.6052167 -0.6971833 0.3842502
vn -0.4474689 0.2583462 -0.8549689
vn -0.4247918 0.297624 -0.854969
vn -0.4701459 0.2190685 -0.8549689
vn -0.91348 0.2073448 -0.346523
vn -0.9063952 0.1755351 -0.3842332
vn -0.9205649 0.2391545 -0.3088129
vn -0.6363062 0.6874247 -0.3465224
vn -0.6673964 0.6776555 -0.3088124
vn -0.6052158 0.6971939 -0.3842324
vn -0.4474682 0.2583458 0.8549696
vn -0.4701428 0.2190723 0.8549696
vn -0.4247936 0.2976193 0.8549697
vn -0.6363033 0.6874169 0.3465437
vn -0.6052167 0.6971833 0.3842502
vn -0.6673899 0.6776505 0.3088373
vn -0.9134721 0.2073464 0.346544
vn -0.9205574 0.2391513 0.3088375
vn -0.9063867 0.1755414 0.3842505
vn 0.4553766 0.7887368 -0.4129483
vn 0.1979435 0.3428504 -0.9182984
vn 0.4553704 0.7887247 0.4129784
vn 0.197952 0.342863 0.9182919
vn -0.2661805 0.9639232 2.277943E-08
vn 0.2661805 0.9639232 2.333299E-08
vn 0.967872 0.2514436 2.833569E-08
vn 0.7016923 0.7124802 3.822193E-08
vn 0.9107561 -5.806995E-07 -0.4129446
vn 0.3958721 -3.472476E-07 -0.9183056
vn 0.9107404 0 0.4129794
vn 0.3959046 0 0.9182916
vn 0.7016927 -0.7124798 -1.287767E-08
vn 0.9678718 -0.2514442 -1.140584E-08
vn 0.455377 -0.7887367 -0.4129482
vn 0.197944 -0.3428507 -0.9182982
vn 0.4553705 -0.7887248 0.4129782
vn 0.197952 -0.3428629 0.9182919
vn -0.2661795 -0.9639235 3.560505E-08
vn 0.2661805 -0.9639232 7.471782E-09
vn -0.4553752 -0.7887335 -0.4129562
vn -0.1979536 -0.3428659 -0.9182904
vn -0.4553705 -0.7887248 0.4129781
vn -0.197952 -0.342863 0.9182919
vn -0.9678719 -0.251444 9.628972E-08
vn -0.7016923 -0.7124802 8.493794E-08
vn -0.91075 4.579575E-07 -0.4129581
vn -0.3959081 1.820886E-07 -0.9182901
vn -0.9107404 0 0.4129794
vn -0.3959046 0 0.9182916
vn -0.7016927 0.7124798 4.276031E-08
vn -0.9678719 0.2514438 6.649786E-08
vn -0.4553756 0.7887336 -0.4129556
vn -0.1979535 0.3428655 -0.9182906
vn -0.4553705 0.7887248 0.4129782
vn -0.197952 0.3428629 0.9182919
vn 0 0 -1

usemtl TestSkin
f 23/23/8 22/22/8 21/21/8
f 25/25/8 26/26/8 24/24/8
f 40/22/155 49/23/155 58/24/155
f 67/26/155 76/25/155 31/21/155
f 3/3/1 2/2/1 1/1/1
f 1/1/1 4/4/2 3/3/1
f 7/7/3 6/6/3 5/5/3
f 5/5/3 8/8/3 7/7/3
f 11/11/4 10/10/4 9/9/4
f 9/9/4 12/12/5 11/11/4
f 15/15/6 14/14/6 13/13/6
f 13/13/6 16/16/6 15/15/6
f 19/19/7 18/18/7 17/17/7
f 17/17/7 20/20/7 19/19/7
f 25/25/8 24/24/8 23/23/8
f 23/23/8 21/21/8 25/25/8
f 29/29/9 28/28/9 27/27/9
f 27/27/9 30/30/10 29/29/9
f 33/32/11 32/31/12 31/21/11
f 31/21/11 34/33/13 33/32/11
f 33/36/14 34/35/15 2/34/14
f 2/34/14 35/37/16 33/36/14
f 33/36/17 35/37/18 27/38/17
f 27/38/17 32/39/19 33/36/17
f 37/32/20 36/33/21 21/21/20
f 21/21/20 38/31/22 37/32/20
f 37/41/23 38/31/24 30/40/23
f 30/40/23 39/42/25 37/41/23
f 37/41/26 39/42/27 3/43/26
f 3/43/26 36/44/28 37/41/26
f 42/46/29 41/45/30 40/22/29
f 40/22/29 43/47/31 42/46/29
f 42/50/32 43/49/33 28/48/32
f 28/48/32 44/51/34 42/50/32
f 42/50/35 44/51/36 17/52/35
f 17/52/35 41/53/37 42/50/35
f 46/46/38 45/47/39 22/22/38
f 22/22/38 47/45/40 46/46/38
f 46/55/41 47/45/42 20/54/41
f 20/54/41 48/56/43 46/55/41
f 46/55/44 48/56/45 29/57/44
f 29/57/44 45/58/46 46/55/44
f 51/60/47 50/59/48 49/23/47
f 49/23/47 52/61/49 51/60/47
f 51/64/50 52/63/51 18/62/50
f 18/62/50 53/65/52 51/64/50
f 51/64/53 53/65/54 5/66/53
f 5/66/53 50/67/55 51/64/53
f 55/68/56 54/61/57 23/23/56
f 23/23/56 56/59/58 55/68/56
f 55/70/59 56/59/60 8/69/59
f 8/69/59 57/71/61 55/70/59
f 55/70/62 57/71/63 19/72/62
f 19/72/62 54/73/64 55/70/62
f 60/75/65 59/74/66 58/24/65
f 58/24/65 61/76/67 60/75/65
f 60/79/68 61/78/69 6/77/68
f 6/77/68 62/80/70 60/79/68
f 60/79/71 62/80/72 9/81/71
f 9/81/71 59/82/73 60/79/71
f 64/75/74 63/76/75 24/24/74
f 24/24/74 65/74/76 64/75/74
f 64/85/77 65/84/78 12/83/77
f 12/83/77 66/86/79 64/85/77
f 64/85/80 66/86/81 7/87/80
f 7/87/80 63/88/82 64/85/80
f 69/90/83 68/89/84 67/26/83
f 67/26/83 70/91/85 69/90/83
f 69/94/86 70/93/87 10/92/86
f 10/92/86 71/95/88 69/94/86
f 69/94/89 71/95/90 13/96/89
f 13/96/89 68/97/91 69/94/89
f 73/90/92 72/91/93 26/26/92
f 26/26/92 74/89/94 73/90/92
f 73/100/95 74/99/96 16/98/95
f 16/98/95 75/101/97 73/100/95
f 73/100/98 75/101/99 11/102/98
f 11/102/98 72/103/100 73/100/98
f 78/105/101 77/104/102 76/25/101
f 76/25/101 79/106/103 78/105/101
f 78/109/104 79/108/105 14/107/104
f 14/107/104 80/110/106 78/109/104
f 78/109/107 80/110/108 1/111/107
f 1/111/107 77/112/109 78/109/107
f 82/105/110 81/106/111 25/25/110
f 25/25/110 83/104/112 82/105/110
f 82/114/113 83/104/114 4/113/113
f 4/113/113 84/115/115 82/114/113
f 82/114/116 84/115/117 15/116/116
f 15/116/116 81/117/118 82/114/116
f 43/118/119 32/39/119 27/38/119
f 27/38/119 28/119/119 43/118/119
f 40/22/120 31/21/120 32/31/120
f 32/31/120 43/47/120 40/22/120
f 38/31/121 45/47/121 29/120/121
f 29/120/121 30/40/121 38/31/121
f 21/21/122 22/22/122 45/47/122
f 45/47/122 38/31/122 21/21/122
f 39/123/123 35/122/123 2/121/123
f 2/121/123 3/124/123 39/123/123
f 30/127/124 27/126/124 35/125/124
f 35/125/124 39/128/124 30/127/124
f 44/130/125 48/129/125 20/20/125
f 20/20/125 17/17/125 44/130/125
f 28/133/126 29/132/126 48/131/126
f 48/131/126 44/134/126 28/133/126
f 52/135/127 41/53/127 17/52/127
f 17/52/127 18/136/127 52/135/127
f 49/23/128 40/22/128 41/45/128
f 41/45/128 52/61/128 49/23/128
f 47/45/129 54/61/129 19/137/129
f 19/137/129 20/54/129 47/45/129
f 22/22/130 23/23/130 54/61/130
f 54/61/130 47/45/130 22/22/130
f 53/139/131 57/138/131 8/138/131
f 8/138/131 5/139/131 53/139/131
f 18/141/132 19/140/132 57/140/132
f 57/140/132 53/141/132 18/141/132
f 61/142/133 50/67/133 5/66/133
f 5/66/133 6/143/133 61/142/133
f 58/24/134 49/23/134 50/59/134
f 50/59/134 61/76/134 58/24/134
f 56/59/135 63/76/135 7/144/135
f 7/144/135 8/69/135 56/59/135
f 23/23/136 24/24/136 63/76/136
f 63/76/136 56/59/136 23/23/136
f 62/147/137 66/146/137 12/145/137
f 12/145/137 9/148/137 62/147/137
f 6/151/138 7/150/138 66/149/138
f 66/149/138 62/152/138 6/151/138
f 70/91/139 59/74/139 9/153/139
f 9/153/139 10/154/139 70/91/139
f 67/26/140 58/24/140 59/74/140
f 59/74/140 70/91/140 67/26/140
f 65/74/141 72/91/141 11/155/141
f 11/155/141 12/156/141 65/74/141
f 24/24/142 26/26/142 72/91/142
f 72/91/142 65/74/142 24/24/142
f 71/159/143 75/158/143 16/157/143
f 16/157/143 13/160/143 71/159/143
f 10/163/144 11/162/144 75/161/144
f 75/161/144 71/164/144 10/163/144
f 79/165/145 68/97/145 13/96/145
f 13/96/145 14/166/145 79/165/145
f 76/25/146 67/26/146 68/89/146
f 68/89/146 79/106/146 76/25/146
f 74/99/147 81/168/147 15/167/147
f 15/167/147 16/98/147 74/99/147
f 26/26/148 25/25/148 81/106/148
f 81/106/148 74/89/148 26/26/148
f 80/171/149 84/170/149 4/169/149
f 4/169/149 1/172/149 80/171/149
f 14/175/150 15/174/150 84/173/150
f 84/173/150 80/176/150 14/175/150
f 34/177/151 77/112/151 1/111/151
f 1/111/151 2/178/151 34/177/151
f 31/21/152 76/25/152 77/104/152
f 77/104/152 34/33/152 31/21/152
f 83/104/153 36/33/153 3/179/153
f 3/179/153 4/113/153 83/104/153
f 25/25/154 21/21/154 36/33/154
f 36/33/154 83/104/154 25/25/154
f 67/26/155 31/21/155 40/22/155
f 40/22/155 58/24/155 67/26/155

